<svg width="22" height="22" viewBox="0 0 22 22" fill="none" xmlns="http://www.w3.org/2000/svg">
<path d="M11.4878 13.6182C12.1323 14.0722 12.8079 14.4539 13.5043 14.7428C13.9367 14.8996 14.6153 14.4555 15.1142 14.129L15.1143 14.129C15.239 14.0474 15.3524 13.9731 15.448 13.9174L15.4794 13.8998C15.9494 13.6359 16.4713 13.3428 17.1423 13.4841C17.7452 13.6079 19.8136 15.238 20.3853 15.8158C20.7595 16.1872 20.9674 16.5792 20.9986 16.9816C21.0609 18.4776 19.0548 20.1592 18.5767 20.4481C17.5581 21.1909 16.1964 21.1806 14.5541 20.4378C12.7975 19.7259 10.6979 18.2299 8.67099 16.4142C7.94543 15.7642 6.55208 14.3956 6.15555 13.9386C4.10788 11.7204 2.38244 9.33717 1.57169 7.40789C1.1871 6.59285 1 5.83971 1 5.1691C1 4.50882 1.1871 3.92075 1.5509 3.41521C1.76918 3.03348 3.52581 0.949447 5.07455 1.00103C5.45914 1.0423 5.85412 1.23832 6.23871 1.60974C6.82079 2.17717 8.49426 4.23025 8.61899 4.83896C8.7613 5.49477 8.46622 6.01245 8.20037 6.47883L8.18243 6.51031C8.12252 6.61384 8.04128 6.73664 7.95248 6.87089L7.95247 6.87089C7.6253 7.36548 7.19534 8.01544 7.34985 8.42928C7.73548 9.37844 8.28638 10.307 8.95057 11.1633C9.6877 12.0446 10.8434 13.1643 11.4878 13.6182Z" stroke="#828282" stroke-width="2"/>
</svg>
