<svg width="16" height="16" viewBox="0 0 16 16" fill="none" xmlns="http://www.w3.org/2000/svg">
<path d="M7.20911 8.40731C7.48552 8.77709 7.83825 9.08306 8.24336 9.30446C8.64848 9.52587 9.09648 9.65751 9.55697 9.69047C10.0175 9.72343 10.4796 9.65693 10.9122 9.49548C11.3447 9.33402 11.7374 9.08141 12.0636 8.75477L13.994 6.8244C14.3032 6.52799 14.5501 6.17282 14.7203 5.77974C14.8905 5.38665 14.9804 4.96355 14.985 4.53524C14.9895 4.10693 14.9085 3.68202 14.7466 3.28543C14.5848 2.88884 14.3454 2.52854 14.0426 2.22566C13.7397 1.92279 13.3794 1.68342 12.9828 1.52159C12.5862 1.35977 12.1613 1.27874 11.733 1.28326C11.3047 1.28778 10.8816 1.37776 10.4885 1.54793C10.0954 1.71809 9.74025 1.96501 9.44383 2.27422L8.33547 3.3744" stroke="white" stroke-width="2" stroke-linecap="round" stroke-linejoin="round"/>
<path d="M9.78345 7.11986C9.50703 6.75009 9.1543 6.44412 8.74919 6.22271C8.34407 6.00131 7.89606 5.86966 7.43558 5.8367C6.97509 5.80374 6.5129 5.87025 6.08038 6.0317C5.64787 6.19315 5.25515 6.44577 4.92889 6.77241L3.00071 8.70277C2.68904 8.9986 2.43978 9.35385 2.26762 9.74756C2.09546 10.1413 2.00389 10.5655 1.99832 10.9952C1.99274 11.4248 2.07328 11.8513 2.23516 12.2493C2.39705 12.6474 2.63702 13.009 2.9409 13.3128C3.24479 13.6166 3.60645 13.8565 4.00453 14.0183C4.40262 14.18 4.82908 14.2605 5.25875 14.2548C5.68842 14.2491 6.11261 14.1575 6.50628 13.9852C6.89995 13.8129 7.25514 13.5636 7.5509 13.2519L8.65108 12.1511" stroke="white" stroke-width="2" stroke-linecap="round" stroke-linejoin="round"/>
</svg>
