<svg width="20" height="18" viewBox="0 0 20 18" fill="none" xmlns="http://www.w3.org/2000/svg">
<path d="M4.12167 1.6154C3.12743 1.94883 2.47444 2.42563 2.022 3.12023C2.11979 3.22334 2.23185 3.33962 2.35689 3.46647C2.86842 3.98537 3.5912 4.675 4.43829 5.36177C5.2882 6.05081 6.24386 6.72111 7.22087 7.21518C8.20516 7.71294 9.15113 8.00121 9.99868 8.00009C10.8445 7.99898 11.7882 7.70941 12.7697 7.21115C13.744 6.71659 14.6968 6.04662 15.5439 5.35827C16.3883 4.67219 17.1086 3.9836 17.6183 3.46556C17.7494 3.3323 17.8662 3.21073 17.9671 3.10387C17.8053 2.85844 17.6229 2.64748 17.4192 2.46407C16.8632 1.96371 16.0604 1.58868 14.8405 1.34468C13.6146 1.09948 12.0384 1.00009 10 1.00009C7.30205 1.00009 5.433 1.17563 4.12167 1.6154ZM3.17877 6.91534C2.43284 6.31059 1.77993 5.7075 1.26751 5.20465C1.08238 6.1905 1 7.43009 1 9.00009C1 12.7304 1.47383 14.5398 2.58084 15.5361C3.1368 16.0365 3.93958 16.4115 5.15949 16.6555C6.38538 16.9007 7.96157 17.0001 10 17.0001C12.0384 17.0001 13.6146 16.9007 14.8405 16.6555C16.0604 16.4115 16.8632 16.0365 17.4192 15.5361C18.5262 14.5398 19 12.7304 19 9.00009C19 7.40628 18.9135 6.16313 18.7281 5.18423C18.2147 5.68983 17.5574 6.29918 16.8051 6.91046C15.891 7.65323 14.8173 8.41472 13.675 8.99454C12.54 9.57068 11.2771 9.99841 10.0013 10.0001C8.72281 10.0018 7.45651 9.57553 6.31832 8.99995C5.17284 8.42068 4.0958 7.65881 3.17877 6.91534Z" stroke="#828282" stroke-width="2" stroke-linecap="round" stroke-linejoin="round"/>
</svg>
